<svg xmlns="http://www.w3.org/2000/svg" width="480" height="480" viewBox="0 0 480 480">
  <defs>
    <g id="brazo">
      <line x1="0" y1="0" x2="48" y2="32" stroke="currentColor" stroke-width="1.2" stroke-linecap="round"/>
      <line x1="48" y1="32" x2="96" y2="0" stroke="currentColor" stroke-width="1.2" stroke-linecap="round"/>
      <circle cx="0" cy="0" r="3" fill="none" stroke="currentColor" stroke-width="1"/>
      <circle cx="48" cy="32" r="4" fill="none" stroke="currentColor" stroke-width="1"/>
      <circle cx="96" cy="0" r="3" fill="none" stroke="currentColor" stroke-width="1"/>
    </g>
    <g id="engranaje">
      <circle cx="0" cy="0" r="14" fill="none" stroke="currentColor" stroke-width="1.2"/>
      <circle cx="0" cy="0" r="6" fill="none" stroke="currentColor" stroke-width="1"/>
      <g stroke="currentColor" stroke-width="1.2" stroke-linecap="round">
        <line x1="0" y1="-18" x2="0" y2="-14"/>
        <line x1="0" y1="14" x2="0" y2="18"/>
        <line x1="-18" y1="0" x2="-14" y2="0"/>
        <line x1="14" y1="0" x2="18" y2="0"/>
        <line x1="-12.7" y1="-12.7" x2="-9.9" y2="-9.9"/>
        <line x1="9.9" y1="9.9" x2="12.7" y2="12.7"/>
        <line x1="-12.7" y1="12.7" x2="-9.9" y2="9.9"/>
        <line x1="9.9" y1="-9.9" x2="12.7" y2="-12.7"/>
      </g>
    </g>
    <g id="cofre">
      <rect x="0" y="0" width="80" height="18" rx="2" fill="none" stroke="currentColor" stroke-width="1.2"/>
      <line x1="6" y1="6" x2="74" y2="6" stroke="currentColor" stroke-width="0.6" opacity="0.6"/>
      <line x1="6" y1="9" x2="74" y2="9" stroke="currentColor" stroke-width="0.6" opacity="0.6"/>
      <line x1="6" y1="12" x2="74" y2="12" stroke="currentColor" stroke-width="0.6" opacity="0.6"/>
    </g>
    <g id="motor">
      <rect x="0" y="0" width="42" height="14" rx="2" fill="none" stroke="currentColor" stroke-width="1.2"/>
      <line x1="6" y1="3" x2="6" y2="11" stroke="currentColor" stroke-width="0.8"/>
      <line x1="12" y1="3" x2="12" y2="11" stroke="currentColor" stroke-width="0.8"/>
      <line x1="18" y1="3" x2="18" y2="11" stroke="currentColor" stroke-width="0.8"/>
      <line x1="24" y1="3" x2="24" y2="11" stroke="currentColor" stroke-width="0.8"/>
      <line x1="30" y1="3" x2="30" y2="11" stroke="currentColor" stroke-width="0.8"/>
      <rect x="42" y="4" width="6" height="6" fill="none" stroke="currentColor" stroke-width="1"/>
    </g>
    <g id="cota">
      <line x1="0" y1="0" x2="60" y2="0" stroke="currentColor" stroke-width="1"/>
      <polyline points="4,-3 0,0 4,3" fill="none" stroke="currentColor" stroke-width="1" stroke-linejoin="round"/>
      <polyline points="56,-3 60,0 56,3" fill="none" stroke="currentColor" stroke-width="1" stroke-linejoin="round"/>
      <line x1="0" y1="-5" x2="0" y2="5" stroke="currentColor" stroke-width="0.8"/>
      <line x1="60" y1="-5" x2="60" y2="5" stroke="currentColor" stroke-width="0.8"/>
    </g>
    <g id="tornillo">
      <circle cx="0" cy="0" r="8" fill="none" stroke="currentColor" stroke-width="1.2"/>
      <line x1="-5" y1="-5" x2="5" y2="5" stroke="currentColor" stroke-width="1"/>
      <line x1="-5" y1="5" x2="5" y2="-5" stroke="currentColor" stroke-width="1"/>
    </g>
    <g id="lamas">
      <rect x="0" y="0" width="54" height="36" fill="none" stroke="currentColor" stroke-width="1.2"/>
      <line x1="0" y1="9" x2="54" y2="9" stroke="currentColor" stroke-width="0.6"/>
      <line x1="0" y1="18" x2="54" y2="18" stroke="currentColor" stroke-width="0.6"/>
      <line x1="0" y1="27" x2="54" y2="27" stroke="currentColor" stroke-width="0.6"/>
    </g>
  </defs>

  <g color="#8a6a1f" opacity="0.55">
    <use href="#brazo" transform="translate(40,80)"/>
    <use href="#engranaje" transform="translate(220,60)"/>
    <use href="#cofre" transform="translate(310,140)"/>
    <use href="#motor" transform="translate(60,220)"/>
    <use href="#cota" transform="translate(180,200)"/>
    <use href="#tornillo" transform="translate(380,40)"/>
    <use href="#lamas" transform="translate(330,280)"/>
    <use href="#brazo" transform="translate(170,330) rotate(8)"/>
    <use href="#engranaje" transform="translate(420,360)"/>
    <use href="#tornillo" transform="translate(40,400)"/>
    <use href="#cota" transform="translate(260,420)"/>
    <use href="#cofre" transform="translate(30,30)"/>
    <use href="#motor" transform="translate(280,360)"/>
    <use href="#tornillo" transform="translate(200,140)"/>
  </g>
</svg>
